<svg width="105" height="39" viewBox="0 0 105 39" fill="none" xmlns="http://www.w3.org/2000/svg">
<path d="M58.2271 11.8205L51.7908 13.5287L33.9323 18.2543C27.6255 19.8317 22.1087 21.9326 16.7926 20.0935C9.56638 16.9387 9.69588 8.73117 15.0832 0C5.55826 7.94575 -11.5814 33.3538 11.5996 35.9195C14.5522 36.3122 19.8101 35.265 25.5211 32.8368L51.7908 21.9392L103.605 0.523608L58.2271 11.8205Z" fill="#1E2022"/>
<path d="M58.2271 11.8205L51.7908 13.5287L33.9323 18.2543C27.6255 19.8317 22.1087 21.9326 16.7926 20.0935C9.56638 16.9387 9.69588 8.73117 15.0832 0C5.55826 7.94575 -11.5814 33.3538 11.5996 35.9195C14.5522 36.3122 19.8101 35.265 25.5211 32.8368L51.7908 21.9392L103.605 0.523608L58.2271 11.8205Z" fill="#1E2022"/>
<path d="M53.0117 36H47.9258V27.4336H53.0117V29.291H50.2402V30.6387H52.8066V32.4961H50.2402V34.1133H53.0117V36ZM55.7832 32.6133L53.7559 29.3613H56.3574L57.3652 31.2246L58.3965 29.3613H61.0039L58.9238 32.6133L61.0859 36H58.4844L57.3652 33.9844L56.252 36H53.6445L55.7832 32.6133ZM64.959 36.1172C64.2871 36.1172 63.7031 35.998 63.207 35.7598C62.7109 35.5176 62.3262 35.1465 62.0527 34.6465C61.7832 34.1426 61.6484 33.498 61.6484 32.7129C61.6484 31.9082 61.7988 31.25 62.0996 30.7383C62.4043 30.2266 62.8203 29.8496 63.3477 29.6074C63.875 29.3652 64.4727 29.2441 65.1406 29.2441C65.5469 29.2441 65.9316 29.2891 66.2949 29.3789C66.6621 29.4688 67.002 29.5918 67.3145 29.748L66.6406 31.4414C66.3672 31.3203 66.1113 31.2246 65.873 31.1543C65.6387 31.0801 65.3945 31.043 65.1406 31.043C64.9102 31.043 64.707 31.1035 64.5312 31.2246C64.3555 31.3457 64.2188 31.5293 64.1211 31.7754C64.0234 32.0176 63.9746 32.3262 63.9746 32.7012C63.9746 33.084 64.0234 33.3926 64.1211 33.627C64.2227 33.8613 64.3613 34.0312 64.5371 34.1367C64.7168 34.2422 64.9219 34.2949 65.1523 34.2949C65.4844 34.2949 65.8145 34.2441 66.1426 34.1426C66.4746 34.0371 66.7891 33.8926 67.0859 33.709V35.5312C66.8125 35.7109 66.5039 35.8535 66.1602 35.959C65.8164 36.0645 65.416 36.1172 64.959 36.1172ZM70.6953 36H68.4043V26.8828H70.6953V36ZM78.7402 29.3613V36H77.0117L76.7246 35.1738H76.5898C76.4531 35.3965 76.2793 35.5781 76.0684 35.7188C75.8613 35.8555 75.6309 35.9551 75.377 36.0176C75.123 36.084 74.8594 36.1172 74.5859 36.1172C74.1523 36.1172 73.7598 36.0332 73.4082 35.8652C73.0605 35.6973 72.7832 35.4336 72.5762 35.0742C72.373 34.7148 72.2715 34.252 72.2715 33.6855V29.3613H74.5625V32.9883C74.5625 33.418 74.623 33.7461 74.7441 33.9727C74.8691 34.1953 75.0723 34.3066 75.3535 34.3066C75.6426 34.3066 75.8652 34.2285 76.0215 34.0723C76.1816 33.916 76.293 33.6855 76.3555 33.3809C76.418 33.0762 76.4492 32.7051 76.4492 32.2676V29.3613H78.7402ZM85.2559 33.9609C85.2559 34.3828 85.1621 34.7559 84.9746 35.0801C84.7871 35.4043 84.4863 35.6582 84.0723 35.8418C83.6621 36.0254 83.1211 36.1172 82.4492 36.1172C81.9766 36.1172 81.5527 36.0918 81.1777 36.041C80.8066 35.9902 80.4297 35.8926 80.0469 35.748V33.9141C80.4648 34.1055 80.8906 34.2441 81.3242 34.3301C81.7578 34.4121 82.0996 34.4531 82.3496 34.4531C82.6074 34.4531 82.7949 34.4258 82.9121 34.3711C83.0332 34.3125 83.0938 34.2266 83.0938 34.1133C83.0938 34.0156 83.0527 33.9336 82.9707 33.8672C82.8926 33.7969 82.75 33.7168 82.543 33.627C82.3398 33.5371 82.0527 33.416 81.6816 33.2637C81.3145 33.1113 81.0078 32.9453 80.7617 32.7656C80.5195 32.5859 80.3379 32.3711 80.2168 32.1211C80.0957 31.8711 80.0352 31.5645 80.0352 31.2012C80.0352 30.5527 80.2852 30.0645 80.7852 29.7363C81.2852 29.4082 81.9473 29.2441 82.7715 29.2441C83.209 29.2441 83.6211 29.293 84.0078 29.3906C84.3945 29.4844 84.7949 29.623 85.209 29.8066L84.582 31.2832C84.2539 31.1348 83.9219 31.0156 83.5859 30.9258C83.25 30.8359 82.9824 30.791 82.7832 30.791C82.6035 30.791 82.4648 30.8145 82.3672 30.8613C82.2695 30.9082 82.2207 30.9766 82.2207 31.0664C82.2207 31.1484 82.2539 31.2207 82.3203 31.2832C82.3906 31.3457 82.5215 31.418 82.7129 31.5C82.9043 31.582 83.1836 31.6973 83.5508 31.8457C83.9375 32.002 84.2559 32.1699 84.5059 32.3496C84.7598 32.5254 84.9473 32.7402 85.0684 32.9941C85.1934 33.248 85.2559 33.5703 85.2559 33.9609ZM88.8359 29.3613V36H86.5449V29.3613H88.8359ZM87.6992 26.6895C88.0273 26.6895 88.3125 26.7578 88.5547 26.8945C88.8008 27.0312 88.9238 27.3027 88.9238 27.709C88.9238 28.1035 88.8008 28.3711 88.5547 28.5117C88.3125 28.6484 88.0273 28.7168 87.6992 28.7168C87.3633 28.7168 87.0762 28.6484 86.8379 28.5117C86.6035 28.3711 86.4863 28.1035 86.4863 27.709C86.4863 27.3027 86.6035 27.0312 86.8379 26.8945C87.0762 26.7578 87.3633 26.6895 87.6992 26.6895ZM92.1758 36L89.6445 29.3613H92.0352L93.1602 33.2871C93.1719 33.3223 93.1914 33.4121 93.2188 33.5566C93.25 33.7012 93.2656 33.8359 93.2656 33.9609H93.3066C93.3066 33.8281 93.3203 33.7012 93.3477 33.5801C93.375 33.459 93.3965 33.3652 93.4121 33.2988L94.5898 29.3613H96.9746L94.4434 36H92.1758ZM100.76 29.2441C101.404 29.2441 101.961 29.3574 102.43 29.584C102.898 29.8066 103.26 30.1426 103.514 30.5918C103.768 31.041 103.895 31.6035 103.895 32.2793V33.2988H99.7988C99.8184 33.6465 99.9473 33.9316 100.186 34.1543C100.428 34.377 100.783 34.4883 101.252 34.4883C101.666 34.4883 102.045 34.4473 102.389 34.3652C102.736 34.2832 103.094 34.1562 103.461 33.9844V35.6309C103.141 35.7988 102.791 35.9219 102.412 36C102.033 36.0781 101.555 36.1172 100.977 36.1172C100.309 36.1172 99.7109 35.998 99.1836 35.7598C98.6562 35.5215 98.2402 35.1523 97.9355 34.6523C97.6348 34.1523 97.4844 33.5098 97.4844 32.7246C97.4844 31.9277 97.6211 31.2734 97.8945 30.7617C98.168 30.2461 98.5508 29.8652 99.043 29.6191C99.5352 29.3691 100.107 29.2441 100.76 29.2441ZM100.842 30.8027C100.572 30.8027 100.346 30.8887 100.162 31.0605C99.9824 31.2285 99.877 31.4941 99.8457 31.8574H101.814C101.811 31.6621 101.771 31.4844 101.697 31.3242C101.623 31.1641 101.514 31.0371 101.369 30.9434C101.229 30.8496 101.053 30.8027 100.842 30.8027Z" fill="#1E2022"/>
</svg>
